<svg width="75" height="75" viewBox="0 0 75 75" fill="none" xmlns="http://www.w3.org/2000/svg">
<path d="M10.7143 0C4.80469 0 0 4.80469 0 10.7143V64.2857C0 70.1953 4.80469 75 10.7143 75H27.154V50.5915H18.3147V37.5H27.154V31.8583C27.154 17.2768 33.75 10.5134 48.0804 10.5134C50.7924 10.5134 55.4799 11.0491 57.4051 11.5848V23.4375C56.4007 23.3371 54.6429 23.2701 52.4498 23.2701C45.4185 23.2701 42.7065 25.9319 42.7065 32.846V37.5H56.702L54.2913 50.5915H42.6897V75H64.2857C70.1953 75 75 70.1953 75 64.2857V10.7143C75 4.80469 70.1953 0 64.2857 0H10.7143Z" fill="#69D8DF"/>
</svg>
