<svg width="75" height="75" viewBox="0 0 75 75" fill="none" xmlns="http://www.w3.org/2000/svg">
<path d="M37.4899 24.9949C30.6041 24.9949 24.9848 30.6143 24.9848 37.5C24.9848 44.3858 30.6041 50.0051 37.4899 50.0051C44.3757 50.0051 49.995 44.3858 49.995 37.5C49.995 30.6143 44.3757 24.9949 37.4899 24.9949ZM74.9958 37.5C74.9958 32.3216 75.0427 27.1901 74.7519 22.0211C74.4611 16.0172 73.0914 10.6887 68.7011 6.29828C64.3013 1.89852 58.9822 0.538249 52.9782 0.247433C47.7998 -0.0433832 42.6683 0.00352279 37.4993 0.00352279C32.3209 0.00352279 27.1894 -0.0433832 22.0204 0.247433C16.0164 0.538249 10.6879 1.9079 6.29755 6.29828C1.89779 10.698 0.537517 16.0172 0.2467 22.0211C-0.0441156 27.1995 0.00279037 32.331 0.00279037 37.5C0.00279037 42.6691 -0.0441156 47.8099 0.2467 52.979C0.537517 58.9829 1.90717 64.3114 6.29755 68.7018C10.6973 73.1015 16.0164 74.4618 22.0204 74.7526C27.1988 75.0434 32.3303 74.9965 37.4993 74.9965C42.6777 74.9965 47.8092 75.0434 52.9782 74.7526C58.9822 74.4618 64.3107 73.0922 68.7011 68.7018C73.1008 64.302 74.4611 58.9829 74.7519 52.979C75.0521 47.8099 74.9958 42.6784 74.9958 37.5ZM37.4899 56.7408C26.8423 56.7408 18.2492 48.1477 18.2492 37.5C18.2492 26.8524 26.8423 18.2593 37.4899 18.2593C48.1375 18.2593 56.7307 26.8524 56.7307 37.5C56.7307 48.1477 48.1375 56.7408 37.4899 56.7408ZM57.5187 21.9648C55.0327 21.9648 53.0251 19.9573 53.0251 17.4712C53.0251 14.9852 55.0327 12.9777 57.5187 12.9777C60.0047 12.9777 62.0123 14.9852 62.0123 17.4712C62.013 18.0616 61.8973 18.6462 61.6717 19.1917C61.4462 19.7373 61.1152 20.2329 60.6978 20.6503C60.2804 21.0678 59.7847 21.3987 59.2392 21.6243C58.6937 21.8498 58.109 21.9656 57.5187 21.9648Z" fill="#69D8DF"/>
</svg>
