<svg width="75" height="75" viewBox="0 0 75 75" fill="none" xmlns="http://www.w3.org/2000/svg">
<path fill-rule="evenodd" clip-rule="evenodd" d="M74.9972 35.6056C74.9965 36.2365 74.9958 36.8679 74.9958 37.5C74.9958 38.2069 74.9969 38.9129 74.9979 39.6182C75.0045 44.0801 75.0111 48.5155 74.7519 52.979C74.4611 58.9829 73.1008 64.302 68.7011 68.7018C64.3107 73.0922 58.9822 74.4618 52.9782 74.7526C48.4401 75.0079 43.9309 75.003 39.3935 74.9979C38.7627 74.9972 38.1314 74.9965 37.4993 74.9965C36.8685 74.9965 36.2383 74.9972 35.6085 74.9979C31.0772 75.003 26.5669 75.008 22.0204 74.7526C16.0164 74.4618 10.6973 73.1015 6.29755 68.7018C1.90717 64.3114 0.537514 58.9829 0.246697 52.979C-0.00862859 48.4406 -0.00362373 43.924 0.00139638 39.391C0.00209066 38.761 0.00279256 38.1307 0.00279255 37.5C0.00279255 36.8693 0.00209064 36.2391 0.00139636 35.6092C-0.0036238 31.0779 -0.00862871 26.5676 0.246704 22.0211C0.537514 16.0172 1.89779 10.698 6.29755 6.29828C10.6879 1.9079 16.0164 0.538249 22.0204 0.247433C26.5585 -0.00788708 31.0677 -0.00289625 35.6051 0.0021258C36.2359 0.002824 36.8672 0.00352279 37.4993 0.00352279C38.1301 0.00352279 38.7603 0.0028243 39.3901 0.00212626C43.9214 -0.00289595 48.4317 -0.0078949 52.9782 0.247433C58.9822 0.538249 64.3013 1.89852 68.7011 6.29828C73.0914 10.6887 74.4611 16.0172 74.7519 22.0211C75.0072 26.5592 75.0022 31.0683 74.9972 35.6056ZM48.8367 10.0007C48.8359 13.2283 49.9891 16.3462 52.0816 18.7741C56.2449 23.6585 62 23.3785 62 23.3785L62 32.9918C57.2776 33.0001 52.6724 31.498 48.8367 28.6985L48.8367 48.2674C48.8367 58.0674 41.0306 66.0007 31.4184 66.0007C22.449 66.0007 14 58.6274 14 48.2674C14 37.6274 23.2449 29.2896 33.8061 30.7207L33.8061 40.5518C28.5714 38.903 23.4898 42.9163 23.4898 48.2674C23.4898 52.7474 27.102 56.3563 31.449 56.3563C33.5044 56.356 35.4796 55.5451 36.9585 54.0943C38.4374 52.6436 39.3046 50.6661 39.3776 48.5785L39.3776 10.0007L48.8367 10.0007Z" fill="#69D8DF"/>
</svg>
