<svg width="40" height="40" viewBox="0 0 40 40" fill="none" xmlns="http://www.w3.org/2000/svg">
<path d="M5.71436 0.5C2.56258 0.5 7.62939e-05 2.99844 7.62939e-05 6.07143V33.9286C7.62939e-05 37.0016 2.56258 39.5 5.71436 39.5H14.4822V26.8076H9.76793V20H14.4822V17.0663C14.4822 9.48393 18.0001 5.96696 25.6429 5.96696C27.0894 5.96696 29.5894 6.24554 30.6161 6.52411V12.6875C30.0804 12.6353 29.1429 12.6004 27.9733 12.6004C24.2233 12.6004 22.7769 13.9846 22.7769 17.5799V20H30.2411L28.9554 26.8076H22.7679V39.5H34.2858C37.4376 39.5 40.0001 37.0016 40.0001 33.9286V6.07143C40.0001 2.99844 37.4376 0.5 34.2858 0.5H5.71436Z" fill="#69D8DF"/>
</svg>
