<svg width="34" height="33" viewBox="0 0 34 33" fill="none" xmlns="http://www.w3.org/2000/svg">
<path d="M23.7183 21.1706L22.8589 22.05C22.8589 22.05 20.8133 24.1387 15.2316 18.4355C9.65 12.7322 11.6957 10.6435 11.6957 10.6435L12.2359 10.0883C13.5713 8.72562 13.6979 6.53595 12.5324 4.93641L10.1524 1.66939C8.70934 -0.310631 5.92324 -0.572691 4.27048 1.11615L1.30494 4.14441C0.487059 4.983 -0.060716 6.06619 0.00539463 7.26972C0.175394 10.3504 1.53161 16.9757 9.09467 24.7055C17.1167 32.9012 24.6439 33.2273 27.7209 32.9323C28.6955 32.8391 29.5418 32.3305 30.2236 31.6317L32.9058 28.8907C34.7192 27.0408 34.2092 23.8669 31.8896 22.5721L28.2819 20.5552C26.7594 19.7069 24.9083 19.9554 23.7183 21.1706Z" fill="#69D8DF"/>
</svg>
