<svg width="40" height="40" viewBox="0 0 40 40" fill="none" xmlns="http://www.w3.org/2000/svg">
<path fill-rule="evenodd" clip-rule="evenodd" d="M39.9987 18.9897C39.9983 19.3261 39.9979 19.6629 39.9979 20C39.9979 20.377 39.9985 20.7536 39.999 21.1297C40.0026 23.5094 40.0061 25.875 39.8678 28.2555C39.7127 31.4576 38.9873 34.2945 36.6407 36.641C34.2992 38.9825 31.4573 39.713 28.2552 39.8681C25.8349 40.0043 23.43 40.0016 21.01 39.999C20.6736 39.9986 20.3368 39.9982 19.9997 39.9982C19.6633 39.9982 19.3272 39.9986 18.9913 39.999C16.5746 40.0016 14.1691 40.0043 11.7443 39.8681C8.54219 39.713 5.70532 38.9875 3.35878 36.641C1.01723 34.2995 0.286751 31.4576 0.131649 28.2555C-0.00452791 25.835 -0.00185764 23.4262 0.000820269 21.0085C0.00119029 20.6726 0.00156413 20.3364 0.00156413 20C0.00156413 19.6636 0.00119029 19.3275 0.000816444 18.9916C-0.00185767 16.5749 -0.00452416 14.1694 0.131649 11.7446C0.286751 8.54248 1.01223 5.70561 3.35878 3.35907C5.70032 1.01752 8.54219 0.287042 11.7443 0.13194C14.1646 -0.00423097 16.5695 -0.00156919 18.9895 0.00110924C19.3259 0.00148162 19.6626 0.00185431 19.9997 0.00185431C20.3362 0.00185431 20.6723 0.00148178 21.0082 0.00110949C23.4249 -0.00156903 25.8304 -0.00423513 28.2552 0.13194C31.4573 0.287042 34.2942 1.01252 36.6407 3.35907C38.9823 5.70061 39.7127 8.54248 39.8678 11.7446C40.004 14.1649 40.0013 16.5698 39.9987 18.9897ZM26.0464 5.33371C26.0459 7.05508 26.661 8.71798 27.777 10.0128C29.9974 12.6179 33.0668 12.4685 33.0668 12.4685L33.0668 17.5957C30.5482 17.6001 28.0921 16.799 26.0464 15.3059L26.0464 25.7426C26.0464 30.9693 21.8831 35.2004 16.7566 35.2004C11.9729 35.2004 7.46676 31.268 7.46676 25.7426C7.46676 20.068 12.3974 15.6211 18.03 16.3844L18.03 21.6277C15.2382 20.7483 12.528 22.8887 12.528 25.7426C12.528 28.132 14.4545 30.0567 16.7729 30.0567C17.8691 30.0566 18.9226 29.6241 19.7113 28.8503C20.5 28.0766 20.9626 27.022 21.0015 25.9086L21.0015 5.33371L26.0464 5.33371Z" fill="#69D8DF"/>
</svg>
